<svg width="257" height="257" viewBox="0 0 257 257" fill="none" xmlns="http://www.w3.org/2000/svg">
<rect x="0.0390625" y="0.276215" width="256" height="256" rx="128" fill="#262626"/>
<path d="M131.463 237.009C129.923 239.673 126.077 239.673 124.537 237.009L31.4692 76.0018C29.9278 73.3351 31.8522 70 34.9323 70H75.6045C77.0794 70 78.4346 70.8116 79.1308 72.1118L124.474 156.793C125.981 159.609 130.019 159.609 131.526 156.793L176.869 72.1118C177.565 70.8116 178.921 70 180.396 70H221.068C224.148 70 226.072 73.3351 224.531 76.0018L131.463 237.009Z" fill="white"/>
<path d="M96.4367 75.8576C95.0401 73.1942 96.9719 70 99.9792 70L157.946 70C160.997 70 162.925 73.2786 161.441 75.9448L131.6 129.581C130.053 132.361 126.039 132.311 124.562 129.494L96.4367 75.8576Z" fill="white"/>
</svg>
