<svg width="4500" height="4500" viewBox="0 0 4500 4500" fill="none" xmlns="http://www.w3.org/2000/svg">
<path d="M2284.64 4440.33C2269.24 4467 2230.76 4467 2215.36 4440.33L334.643 1183C319.246 1156.33 338.491 1123 369.284 1123H1251.03C1265.79 1123 1279.35 1131.12 1286.3 1144.13L2214.73 2880C2229.8 2908.18 2270.2 2908.18 2285.27 2880L3213.7 1144.13C3220.66 1131.12 3234.21 1123 3248.97 1123H4130.72C4161.51 1123 4180.75 1156.33 4165.36 1183L2284.64 4440.33Z" fill="white"/>
<path d="M1605.29 1181.56C1591.34 1154.93 1610.66 1123 1640.73 1123L2898.61 1123C2929.12 1123 2948.39 1155.77 2933.58 1182.43L2286.01 2347.67C2270.55 2375.49 2230.37 2374.99 2215.61 2346.8L1605.29 1181.56Z" fill="white"/>
</svg>
