<svg width="4312" height="4312" viewBox="0 0 4312 4312" fill="none" xmlns="http://www.w3.org/2000/svg">
<path d="M2207.34 2875.8C2191.94 2902.46 2153.45 2902.46 2138.05 2875.8L1052.82 996.111C1037.42 969.445 1056.67 936.111 1087.46 936.111H1571.47C1586.22 936.111 1599.78 944.235 1606.74 957.247L2137.42 1949.51C2152.49 1977.69 2192.9 1977.69 2207.97 1949.51L2738.65 957.247C2745.61 944.235 2759.17 936.111 2773.92 936.111H3257.93C3288.72 936.111 3307.97 969.445 3292.57 996.111L2207.34 2875.8Z" fill="white"/>
<path d="M1803.5 994.67C1789.55 968.037 1808.87 936.111 1838.93 936.111L2528.98 936.111C2559.48 936.111 2578.76 968.88 2563.94 995.541L2208.7 1634.79C2193.24 1662.61 2153.07 1662.11 2138.3 1633.92L1803.5 994.67Z" fill="white"/>
<path d="M2006.46 3169.77C2013.8 3182.22 2013.86 3197.66 2006.61 3210.16L1886.27 3417.65C1870.88 3444.17 1832.6 3444.24 1817.13 3417.76L76.4422 438.905C60.8599 412.239 80.0931 378.724 110.978 378.724L337.177 378.724C351.334 378.724 364.437 386.207 371.63 398.4L2006.46 3169.77Z" fill="white"/>
<path d="M3595.54 958.853C3602.65 946.349 3615.93 938.625 3630.31 938.625L3884.3 938.625C3915.13 938.625 3934.37 972.047 3918.89 998.713L2193.03 3970.44C2177.92 3996.46 2140.56 3997.11 2124.56 3971.62L2010.24 3789.52C2002.41 3777.05 2002.07 3761.28 2009.35 3748.48L3595.54 958.853Z" fill="white"/>
<path d="M866.641 639.264C852.53 639.264 839.463 631.829 832.254 619.699L716.74 425.31C700.916 398.681 720.062 364.944 751.039 364.876L4208.43 357.282C4239.02 357.215 4258.37 390.124 4243.42 416.821L4130.35 618.803C4123.28 631.438 4109.93 639.264 4095.45 639.264L866.641 639.264Z" fill="white"/>
</svg>
