<svg width="4000" height="4000" viewBox="0 0 4000 4000" fill="none" xmlns="http://www.w3.org/2000/svg">
<g clip-path="url(#clip0_307_64)">
<rect width="4000" height="4000" transform="matrix(-1 0 0 -1 4000 4000)" fill="#262626"/>
<path d="M2048.37 3004.77C2032.97 3031.44 1994.48 3031.44 1979.09 3004.77L1098.49 1479.54C1083.1 1452.88 1102.34 1419.54 1133.13 1419.54H1514.82C1529.58 1419.54 1543.13 1427.67 1550.09 1440.68L1978.45 2241.62C1993.53 2269.8 2033.93 2269.8 2049 2241.62L2477.36 1440.68C2484.32 1427.67 2497.88 1419.54 2512.63 1419.54H2894.32C2925.11 1419.54 2944.36 1452.88 2928.96 1479.54L2048.37 3004.77Z" fill="white"/>
<path d="M1715.41 1478.1C1701.46 1451.47 1720.78 1419.54 1750.84 1419.54L2294.81 1419.54C2325.31 1419.54 2344.59 1452.31 2329.77 1478.97L2049.73 1982.9C2034.27 2010.71 1994.1 2010.22 1979.33 1982.03L1715.41 1478.1Z" fill="white"/>
<path d="M1874.84 3253.71C1882.18 3266.16 1882.24 3281.6 1874.99 3294.1L1784.17 3450.68C1768.79 3477.21 1730.5 3477.27 1715.03 3450.8L295.266 1021.14C279.684 994.472 298.917 960.957 329.802 960.957L499.502 960.957C513.659 960.957 526.762 968.44 533.955 980.633L1874.84 3253.71Z" fill="white"/>
<path d="M3182.33 1441.84C3189.44 1429.33 3202.71 1421.61 3217.1 1421.61L3409.62 1421.61C3440.46 1421.61 3459.7 1455.03 3444.21 1481.7L2036.35 3905.87C2021.24 3931.9 1983.89 3932.54 1967.89 3907.05L1882.32 3770.76C1874.49 3758.29 1874.15 3742.52 1881.43 3729.72L3182.33 1441.84Z" fill="white"/>
<path d="M943.206 1175.32C929.095 1175.32 916.028 1167.88 908.82 1155.75L822.191 1009.97C806.367 983.341 825.514 949.605 856.49 949.537L3676.49 943.343C3707.09 943.276 3726.43 976.185 3711.48 1002.88L3626.41 1154.85C3619.33 1167.49 3605.98 1175.32 3591.5 1175.32L943.206 1175.32Z" fill="white"/>
</g>
<defs>
<clipPath id="clip0_307_64">
<rect width="4000" height="4000" fill="white" transform="matrix(-1 0 0 -1 4000 4000)"/>
</clipPath>
</defs>
</svg>
