<svg width="257" height="257" viewBox="0 0 257 257" fill="none" xmlns="http://www.w3.org/2000/svg">
<path d="M132.248 184.787C130.708 187.454 126.859 187.454 125.32 184.787L77.9692 102.774C76.4296 100.107 78.3541 96.774 81.4333 96.774H99.2476C100.723 96.774 102.079 97.5864 102.775 98.8876L125.257 140.924C126.764 143.742 130.804 143.742 132.311 140.924L154.793 98.8876C155.489 97.5864 156.844 96.774 158.32 96.774H176.134C179.213 96.774 181.138 100.107 179.598 102.774L132.248 184.787Z" fill="white"/>
<path d="M113.051 102.63C111.657 99.9666 113.588 96.774 116.595 96.774L141.932 96.774C144.982 96.774 146.91 100.051 145.428 102.717L132.384 126.189C130.839 128.971 126.821 128.921 125.345 126.102L113.051 102.63Z" fill="white"/>
<path d="M120.339 200.72C121.073 201.965 121.079 203.509 120.353 204.759L117.144 210.292C115.606 212.945 111.778 212.951 110.231 210.303L32.0937 76.587C30.5355 73.9204 32.4588 70.5689 35.5473 70.5689L41.2781 70.5689C42.6938 70.5689 44.0041 71.3173 44.7234 72.5366L120.339 200.72Z" fill="white"/>
<path d="M195.068 98.915C195.779 97.6645 197.107 96.8921 198.545 96.8921L205.571 96.8921C208.655 96.8921 210.579 100.234 209.03 102.901L131.502 236.396C129.991 238.998 126.255 239.063 124.655 236.514L121.82 231.998C121.037 230.75 121.003 229.174 121.731 227.894L195.068 98.915Z" fill="white"/>
<path d="M68.5868 82.818C67.1757 82.818 65.8689 82.0744 65.1481 80.8614L62.2314 75.9531C60.6489 73.2901 62.5636 69.9165 65.6613 69.9097L220.868 69.5688C223.927 69.562 225.861 72.8529 224.367 75.5226L221.428 80.7718C220.721 82.0354 219.386 82.818 217.938 82.818L68.5868 82.818Z" fill="white"/>
</svg>
